<svg
            
            viewBox="0 0 80 80"
          >
            <defs id="SvgjsDefs2211"></defs>
            <g
              id="SvgjsG2212"
              transform="matrix(0.7920075685449823,0,0,0.7920075685449823,-7.192925700805121,-0.6399410518976204)"
              fill="#3b0c69"
            >
              <g xmlns="http://www.w3.org/2000/svg"
              >
                <path
                  d="M90.918,37.826c0-20.412-16.607-37.018-37.02-37.018c-20.27,0-36.788,16.379-37.014,36.597L9.247,55.031   c-0.268,0.617-0.207,1.328,0.163,1.893c0.37,0.562,0.998,0.902,1.672,0.902h5.801v25.055c0,5.049,4.107,9.156,9.155,9.156h13.144   h0.037h7.655c5.196,0,9.422-4.227,9.422-9.422V46.594c2.544-0.842,4.386-3.239,4.386-6.062c0-2.823-1.842-5.219-4.386-6.062v-8.821   c2.544-0.842,4.386-3.239,4.386-6.062c0-3.521-2.863-6.387-6.386-6.387s-6.389,2.865-6.389,6.387c0,2.823,1.844,5.22,4.389,6.062   v8.821c-2.545,0.841-4.389,3.239-4.389,6.062c0,2.823,1.844,5.221,4.389,6.062v36.021c0,2.988-2.432,5.422-5.422,5.422h-7.655   h-0.037H26.038c-2.842,0-5.154-2.312-5.154-5.156V55.826c0-1.104-0.896-2-2-2H14.13l6.589-15.205   c0.109-0.251,0.166-0.522,0.166-0.795c0-18.206,14.811-33.018,33.015-33.018c18.207,0,33.02,14.812,33.02,33.018   c0,8.033-2.918,15.76-8.213,21.783c-0.039,0.037-0.083,0.066-0.12,0.106c-5.075,5.562-7.869,12.771-7.869,20.302v17.174   c0,1.104,0.896,2,2,2s2-0.896,2-2V80.02c0-6.469,2.38-12.66,6.698-17.463c0.053-0.048,0.109-0.09,0.158-0.145   C87.6,55.635,90.918,46.903,90.918,37.826z M54.296,17.201c1.315,0,2.386,1.071,2.386,2.387s-1.07,2.387-2.386,2.387   c-1.317,0-2.39-1.071-2.39-2.387C51.906,18.271,52.979,17.201,54.296,17.201z M54.296,38.146c1.315,0,2.386,1.071,2.386,2.387   c0,1.316-1.07,2.387-2.386,2.387c-1.317,0-2.39-1.071-2.39-2.387C51.906,39.216,52.979,38.146,54.296,38.146z"
                >

                </path>
                <path
                  d="M48.93,30.06c0-3.522-2.866-6.388-6.389-6.388s-6.389,2.866-6.389,6.388c0,2.823,1.844,5.22,4.389,6.062v10.034   c0,1.112,0.264,2.223,0.762,3.217l5.419,10.793c0.221,0.439,0.337,0.93,0.337,1.42v21.646c0,1.104,0.896,2,2,2c1.105,0,2-0.896,2-2   V61.586c0-1.111-0.263-2.223-0.762-3.215l-5.418-10.793c-0.22-0.438-0.337-0.931-0.337-1.422V36.122   C47.086,35.28,48.93,32.883,48.93,30.06z M42.542,27.672c1.316,0,2.389,1.071,2.389,2.388c0,1.316-1.072,2.387-2.389,2.387   s-2.389-1.071-2.389-2.387C40.153,28.743,41.225,27.672,42.542,27.672z"
                >

                </path>
                <path
                  d="M72.438,30.06c0-3.522-2.865-6.388-6.389-6.388s-6.389,2.866-6.389,6.388c0,2.823,1.844,5.22,4.389,6.062v10.034   c0,0.492-0.117,0.984-0.337,1.422l-5.418,10.791c-0.499,0.994-0.763,2.105-0.763,3.217v21.646c0,1.104,0.896,2,2,2s2-0.896,2-2   V61.586c0-0.49,0.115-0.98,0.337-1.42l5.419-10.794c0.498-0.993,0.762-2.104,0.762-3.216V36.122   C70.594,35.28,72.438,32.883,72.438,30.06z M66.049,32.447c-1.316,0-2.389-1.071-2.389-2.387c0-1.317,1.072-2.388,2.389-2.388   c1.317,0,2.389,1.071,2.389,2.388C68.438,31.376,67.365,32.447,66.049,32.447z"
                >

                </path>
              </g
              >
            </g
            >
            
          </svg>